# xmcd CD database file
#
# Track frame offsets:
#	150
#	24672
#	45125
#	70165
#	91245
#	116485
#	133707
#	157715
#	173975
#	197905
#	214770
#
# Disc length: 3124 seconds
#
# Revision: 1
# Processed by: cddbd v1.5.1PL2 Copyright (c) Steve Scherf et al.
# Submitted via: CDex 1.51
#
DISCID=8b0c320b
DTITLE=Stephane Grappelli - So Easy To Remember
DYEAR=1993
DGENRE=Jazz
TTITLE0=(I Can't Believe That) You're Still In Love With Me
TTITLE1=Smoke Gets In Your Eyes
TTITLE2=It's So Easy To Remember
TTITLE3=In A Sentimental Mood
TTITLE4=Love For Sale
TTITLE5=You Brought A New Kind Of Love To Me
TTITLE6=For All We Know
TTITLE7=Night And Day
TTITLE8=I'm Confessin'
TTITLE9=How High The Moon
TTITLE10=God Bless The Child
EXTD=YEAR: 1993
EXTT0=
EXTT1=
EXTT2=
EXTT3=
EXTT4=
EXTT5=
EXTT6=
EXTT7=
EXTT8=
EXTT9=
EXTT10=
PLAYORDER=
